HIERARCHY
ROOT simHips
{
  OFFSET -207.377 98.6406 177.839
  CHANNELS 6 Xposition Yposition Zposition Zrotation Xrotation Yrotation
  JOINT simSpine
  {
    OFFSET -0.000355721 21.3001 -0.016921
    CHANNELS 3 Zrotation Xrotation Yrotation
    JOINT simLeftArm
    {
      OFFSET 13.5181 21.3012 0
      CHANNELS 3 Zrotation Xrotation Yrotation
      JOINT simLeftForeArm
      {
        OFFSET 24.5783 0 0
        CHANNELS 3 Zrotation Xrotation Yrotation
        JOINT simLeftHand
        {
          OFFSET 24.5783 0 0
          CHANNELS 3 Zrotation Xrotation Yrotation
          End Site
          {
            OFFSET 7.32568 1.52588e-005 0.0169305
          }
        }
      }
    }
    JOINT simHead
    {
      OFFSET 0 27.4458 -0.00489235
      CHANNELS 3 Zrotation Xrotation Yrotation
      End Site
      {
        OFFSET 0 0 0
      }
    }
    JOINT simRightArm
    {
      OFFSET -13.5174 21.3012 0
      CHANNELS 3 Zrotation Xrotation Yrotation
      JOINT simRightForeArm
      {
        OFFSET -24.5783 0 0
        CHANNELS 3 Zrotation Xrotation Yrotation
        JOINT simRightHand
        {
          OFFSET -24.5783 0 0
          CHANNELS 3 Zrotation Xrotation Yrotation
          End Site
          {
            OFFSET -7.32568 1.52588e-005 0.0169305
          }
        }
      }
    }
  }
  JOINT simRightUpLeg
  {
    OFFSET -8.44614 -9.41038 0.835684
    CHANNELS 3 Zrotation Xrotation Yrotation
    JOINT simRightLeg
    {
      OFFSET 0 -40.9639 0
      CHANNELS 3 Zrotation Xrotation Yrotation
      JOINT simRightFoot
      {
        OFFSET 0 -40.9639 0
        CHANNELS 3 Zrotation Xrotation Yrotation
        End Site
        {
          OFFSET 0.50614 -9.67405 14.6709
        }
      }
    }
  }
  JOINT simLeftUpLeg
  {
    OFFSET 8.44614 -9.41038 0.835684
    CHANNELS 3 Zrotation Xrotation Yrotation
    JOINT simLeftLeg
    {
      OFFSET 0 -40.9639 0
      CHANNELS 3 Zrotation Xrotation Yrotation
      JOINT simLeftFoot
      {
        OFFSET 0 -40.9639 0
        CHANNELS 3 Zrotation Xrotation Yrotation
        End Site
        {
          OFFSET -0.50614 -9.67405 14.6709
        }
      }
    }
  }
}
MOTION
Frames:	29
Frame Time:	0.0333333
-83.0934 97.5492 -493.436 -5.44718 1.39804 61.8043 -2.26951 8.37574 -0.548791 -65.1566 64.7828 -6.79541 25.6799 -11.0884 -23.5866 21.7129 -8.63895 -0.0633732 -21.6082 30.624 16.3912 89.6166 67.3728 -25.6575 -26.6329 -13.5243 27.5819 -13.3132 2.66488 11.7839 -2.67798 -29.1794 -1.19041 -5.85035 57.9357 3.10561 6.7689 -6.61844 -0.259855 4.47993 -21.2316 13.5069 0.184043 37.3807 -0.0294843 1.4535 -16.7247 -0.562633 
-81.0183 97.5413 -492.896 -5.00096 1.28054 63.141 -2.20403 8.35718 -0.611371 -64.9782 65.2637 -7.39618 25.6758 -10.9429 -23.2312 21.5698 -8.45406 -0.426344 -20.1819 31.0649 16.6537 88.8759 67.0673 -24.4559 -26.832 -13.9137 28.039 -13.1165 4.18203 11.8437 -2.02126 -29.9543 -1.68904 -5.02076 53.6524 1.91146 5.87601 -7.94086 -0.501749 3.70842 -19.4361 12.6777 0.125148 37.4005 -0.384038 1.69433 -17.7639 -0.748957 
-78.8758 97.5154 -492.28 -4.51506 1.27252 64.4033 -2.14292 8.31277 -0.672815 -65.211 65.6703 -7.55072 25.3315 -10.597 -22.9269 22.3745 -8.34815 -0.697104 -18.7206 31.4312 16.5225 88.5993 66.99 -23.8145 -27.0706 -14.3323 28.4512 -12.8645 5.7141 12.5043 -1.68388 -30.377 -2.64495 -4.59897 47.9772 1.46778 5.45985 -7.50896 -0.524477 2.9162 -17.5167 12.0519 0.206928 37.3272 -0.830285 1.87048 -18.7285 -0.941307 
-76.6464 97.5362 -491.65 -4.0561 1.19021 65.4259 -2.05753 8.24683 -0.713401 -66.1278 65.9049 -6.8436 25.0255 -10.3148 -22.7071 23.7351 -8.25722 -1.2319 -17.2879 31.6066 16.4077 88.4032 66.7382 -23.2398 -27.0854 -14.6175 29.0719 -12.6017 6.97163 13.2053 -1.09948 -30.4585 -3.3986 -4.17039 41.3465 1.22635 3.87497 -5.29966 -0.518737 2.36076 -15.3189 11.549 0.0988916 36.9297 -1.09478 2.06962 -19.5345 -1.07404 
-74.3456 97.4708 -490.957 -3.60881 1.30151 66.3265 -1.98475 8.12515 -0.767769 -67.7027 66.0995 -5.35695 24.8694 -10.2783 -22.8723 25.8253 -8.12652 -1.65555 -16.1707 31.7163 16.3958 87.9268 66.0603 -22.4923 -26.9314 -14.7768 29.8109 -12.2353 8.74239 14.014 -1.23176 -31.1346 -3.8657 -3.62036 35.6037 1.32986 6.19579 -2.52883 -0.136157 1.75578 -13.0973 11.0192 -0.161335 36.4942 -1.18998 2.25705 -20.3733 -1.14961 
-71.9163 97.3402 -490.179 -3.13655 1.55366 67.205 -1.91749 7.97199 -0.840581 -69.8999 66.7671 -3.05247 25.0688 -10.6211 -23.4289 28.0577 -8.59097 -1.52209 -15.4365 31.8528 16.5765 87.6166 65.2779 -21.899 -26.8414 -14.8348 30.1662 -12.0316 10.3944 14.4015 -1.60655 -31.1776 -3.50035 -2.41786 29.6089 1.23062 6.99735 -1.97473 0.31774 1.02086 -10.6604 10.47 -0.314295 35.8166 -1.33499 2.32315 -21.1972 -1.22462 
-69.3164 97.2028 -489.345 -2.65166 1.74754 68.1604 -1.82117 7.79317 -0.93713 -72.2649 67.1448 -0.43271 25.0661 -10.9447 -24.2692 29.5076 -9.28823 -1.13 -14.617 32.1723 16.5384 87.2279 64.3546 -21.2073 -26.5362 -14.4924 30.134 -12.1974 11.0452 14.8906 -1.93028 -30.9315 -2.14467 -1.38718 23.9193 1.26526 6.59432 -1.65467 0.679441 0.273077 -7.55213 9.68232 -0.398783 34.343 -1.49392 2.24352 -21.8997 -1.27599 
-66.524 97.0149 -488.412 -2.08867 1.9418 69.2988 -1.70143 7.58916 -1.08589 -74.6955 67.7672 2.24484 25.1632 -11.2381 -24.8512 29.5627 -9.78071 -1.0942 -13.6961 32.5504 16.0972 86.897 63.4465 -20.5317 -26.1988 -13.9195 29.6149 -12.4687 9.25144 15.1229 -2.34548 -30.2217 0.304903 -0.630721 18.7691 1.09945 6.53649 -1.32624 0.732142 -0.49967 -4.39045 8.31472 -0.50355 32.742 -1.45788 2.06745 -22.4792 -1.23907 
-63.5264 96.6824 -487.286 -1.4676 2.40346 70.5594 -1.63962 7.32334 -1.36064 -78.5224 67.6816 6.13499 25.3961 -11.6371 -25.4462 28.0368 -9.12165 -2.05886 -13.0865 32.7882 14.9934 85.72 63.5202 -19.159 -25.9568 -12.9705 27.8568 -11.52 5.2493 14.9098 -3.12021 -29.4136 3.10111 -0.20176 15.43 1.19599 7.06888 -2.24061 0.909474 -1.37115 -0.572097 7.36432 -0.381241 30.3162 -1.83156 1.75832 -23.0156 -1.38928 
-60.4123 96.3869 -485.959 -0.831815 2.79046 72.2348 -1.64775 7.01809 -1.96825 -85.5894 66.531 13.2377 25.7968 -11.987 -25.6003 26.6074 -9.41726 -3.55758 -13.9577 33.4627 13.0772 82.5833 64.1146 -15.5641 -24.9519 -11.0096 25.0844 -11.9027 -0.543554 14.9005 -3.67576 -29.4394 3.85372 -0.0791943 16.5448 1.72757 5.81404 -2.51593 1.29546 -1.89509 3.64819 6.35114 -0.175893 27.3953 -2.28491 1.18938 -22.9658 -1.62974 
-57.3853 96.3387 -484.528 -0.326065 2.39091 74.2852 -1.65703 6.69538 -3.03486 -95.7567 64.0588 24.061 24.9715 -10.2725 -22.6865 28.039 -18.086 -3.49726 -18.5865 34.0831 8.06945 75.4201 65.5544 -6.74192 -21.6502 -6.86488 19.8723 -14.444 -7.58928 13.8963 -2.72044 -28.7771 -0.782879 -2.6428 18.4511 5.58138 4.13113 5.70108 3.03758 -0.842778 7.72554 5.45037 -0.45647 24.6613 -2.72409 0.267786 -21.9879 -2.11332 
-54.4996 96.2582 -482.927 0.956613 2.27465 76.1299 -1.83075 6.62659 -4.23255 -111.014 71.0193 39.5819 19.8512 -4.79341 -13.7992 32.502 -35.5564 9.33283 -25.9057 37.7394 -1.35221 65.7209 70.4909 3.92468 -18.9703 -3.83554 13.845 -13.9503 -4.33317 10.1925 -2.56065 -27.4713 -0.133527 -3.0044 22.238 4.98372 3.10105 7.94247 2.47801 0.176326 11.6215 5.19987 -0.526484 24.0176 -3.61917 -0.373049 -20.736 -2.90364 
-51.7149 95.9974 -481.26 2.48635 2.01532 76.6781 -2.03374 6.8824 -4.77978 -159.983 79.9845 86.7959 12.347 -0.475129 -3.05944 21.8294 -36.3497 11.4882 -31.4294 40.4292 -8.07272 69.218 71.1886 -1.21826 -21.0399 -5.56145 16.3315 -7.5987 6.73094 8.24743 -2.84337 -27.4494 0.754809 -1.29604 30.0063 3.38132 1.67263 2.04174 2.09437 1.93876 11.3743 6.97054 -0.483275 30.7089 -5.18146 -0.468876 -19.4969 -4.29103 
-49.1657 96.2281 -479.817 3.20272 0.816431 76.6339 -2.05476 7.14735 -4.228 170.446 81.7364 114.146 8.00022 0.392717 -2.28846e-006 16.8978 -8.70257 3.0934 -32.6126 39.8737 -7.73501 80.9969 68.7571 -16.4794 -23.2208 -9.65951 25.5202 -9.40008 15.913 12.372 -1.91026 -24.8373 -2.73541 -1.76204 31.0742 5.46652 0.203037 -0.982955 3.36377 4.91964 9.44562 9.48046 0.47292 38.9906 -7.83223 0.0429318 -15.6477 -6.15831 
-46.8489 96.8655 -478.582 3.10664 0.737915 76.6749 -2.0832 7.06382 -3.23964 -129.787 80.766 54.5872 11.4147 0.108786 1.10237e-006 24.9474 3.69292 4.59111 -34.8387 37.4504 -2.16137 90.9889 69.2922 -32.4241 -24.7524 -15.0422 36.5526 -14.3999 17.1698 15.3569 -1.8658 -22.676 -4.11338 -1.32529 30.4277 5.88367 -0.81297 -2.45094 3.79995 6.23543 4.89357 10.0551 2.06038 47.6373 -10.2512 -0.161168 -7.79485 -7.64983 
-44.6109 97.5167 -477.43 3.30668 0.948365 76.7871 -2.04642 6.98557 -2.16894 -102.263 76.8313 28.4449 13.9385 -1.11184 -5.12839 32.9933 -14.8312 13.4483 -35.465 35.0409 2.99303 94.0429 68.554 -40.5817 -23.559 -17.1644 46.0695 -21.4279 13.5428 19.8519 -1.8373 -20.2933 -5.27293 -1.63389 29.5973 6.53105 -1.33965 -3.69191 4.09261 7.87491 -1.03107 10.0617 3.6748 55.8154 -11.1061 -10.1287 3.90573 -7.3931 
-42.2905 98.0342 -476.513 3.59 0.889117 77.577 -1.88398 7.00624 -1.39158 -86.608 68.0125 14.2937 17.9129 -3.74071 -12.463 23.7459 -25.2627 9.52408 -33.2999 33.1145 4.77443 92.804 67.073 -42.1793 -22.3851 -17.0835 51.1509 -24.3724 8.88954 24.5181 -1.43465 -17.7637 -3.28964 -0.920663 28.9745 4.65686 -1.33197 -5.0607 3.05785 8.87608 -6.04593 9.5207 4.59194 61.6398 -10.622 -13.1178 8.49344 -5.97053 
-39.9919 98.4316 -475.723 3.75313 0.922415 79.2625 -1.72537 7.02172 -1.01409 -79.9544 60.2721 8.53247 21.1675 -6.83982 -18.9209 12.0784 -18.7637 2.39364 -30.4834 32.1817 4.07971 91.5532 66.9824 -41.5483 -22.3861 -16.7807 50.3996 -22.0792 7.9301 25.5394 -1.14258 -15.4501 -1.58732 -0.469286 28.5622 2.5294 -1.06363 -6.56261 1.76602 9.09099 -10.7866 8.6748 5.10408 66.2582 -11.1172 -10.6112 6.4247 -6.33798 
-37.7894 98.4944 -475.06 3.9964 0.556273 81.1408 -1.51663 7.05064 -0.778793 -77.4098 58.4421 6.4674 23.7123 -9.199 -21.8834 10.0326 -9.34712 -3.39898 -27.4407 32.7549 2.87075 93.4623 68.3827 -41.6596 -23.6095 -16.4452 44.1434 -17.7031 9.81388 22.9438 -0.695198 -13.4823 -1.80881 -0.423382 29.0794 1.53359 -0.9991 -8.49147 1.0933 9.37208 -15.0301 7.68309 4.58987 68.5633 -10.9659 -9.62604 5.85106 -6.67349 
-35.5491 98.4715 -474.481 4.31574 0.323202 82.6199 -1.37423 7.03132 -0.576073 -78.4293 59.3822 7.02158 26.032 -10.9456 -22.6608 16.2799 -5.45076 -4.72832 -25.1062 33.9149 2.39775 96.1088 70.7192 -41.7805 -24.6595 -14.8644 36.4004 -15.6768 11.5373 19.781 -0.47151 -11.8003 -2.6171 -0.466264 29.9843 1.15018 -1.03473 -10.4496 0.802152 9.40827 -18.1218 7.45879 3.14944 67.9871 -10.256 -9.23778 4.32371 -7.21637 
-33.2797 98.3644 -474.01 4.54092 -0.0861312 83.749 -1.19118 7.01917 -0.509997 -79.9288 59.4252 8.20474 27.0309 -12.0855 -23.7655 23.1768 -3.96898 -2.7005 -23.3984 34.3487 2.66195 95.8408 72.3494 -38.6791 -24.7213 -12.3443 29.4511 -14.8034 12.4608 16.8866 -0.0492097 -9.99194 -3.41782 -0.494481 30.5312 0.971446 -1.08933 -12.3273 0.648578 10.0129 -20.2843 7.33933 -0.909665 65.1266 -6.54565 -9.52381 1.72016 -7.34016 
-30.9647 98.2242 -473.631 4.76236 -0.341102 84.4377 -1.03674 6.99606 -0.467842 -80.4109 58.1832 8.36399 26.5879 -12.3487 -25.0989 28.073 -5.00058 0.00109466 -22.4247 34.1082 3.51754 92.8423 73.0986 -33.0464 -24.1717 -9.83335 23.5626 -12.5854 10.7943 14.4125 0.266628 -8.11181 -4.07646 -0.692983 30.9013 1.07167 -1.04642 -14.141 0.621302 10.1503 -21.4929 8.23743 -3.03688 60.5847 -4.08353 -6.42521 -2.19796 -6.95554 
-28.6621 98.12 -473.36 4.88715 -0.414244 84.627 -0.933138 6.96594 -0.377367 -81.0368 56.6022 8.57479 26.7417 -12.6188 -25.4647 26.1264 -6.13021 -0.298441 -21.9256 33.527 4.46285 88.5484 72.551 -26.3792 -23.4361 -7.80276 18.8924 -10.0289 6.48134 12.4134 0.368718 -6.56343 -4.1153 -0.728627 31.3028 1.05768 -0.976624 -15.6779 0.587969 10.0569 -21.9433 9.36075 -3.74321 53.9101 -2.31769 -4.25036 -4.19777 -5.76665 
-26.3641 97.9213 -473.263 4.74392 -0.631417 84.5371 -0.812281 6.90924 -0.256586 -81.2692 55.4049 8.74491 27.088 -12.7961 -25.2877 21.4175 -6.3738 -2.54943 -21.4305 32.7572 5.26496 84.9006 70.6122 -20.583 -22.5115 -6.3581 16.0289 -9.71283 1.52264 9.99365 0.495649 -5.27952 -3.97448 -0.662431 31.8728 1.06272 -0.866672 -17.171 0.612914 10.0074 -22.5023 10.9762 -2.34156 46.4322 -2.72997 -4.21811 -3.62545 -4.78978 
-24.0793 97.6867 -473.325 4.33126 -0.850284 83.8887 -0.698244 6.82046 -0.0738816 -81.4549 55.2998 9.05293 27.0831 -12.5397 -24.7158 19.2811 -5.43287 -4.20424 -21.3779 31.9041 6.10463 82.7501 69.2318 -16.6377 -21.7617 -5.51443 14.575 -10.954 -3.52488 7.33797 0.531167 -4.72446 -3.49703 -0.634752 32.9177 1.19388 -0.680849 -18.5344 0.730852 10.2322 -23.2174 12.2093 -0.945246 38.6407 -3.65834 -7.01082 -0.724217 -4.25211 
-21.7899 97.4073 -473.486 3.54943 -1.06865 82.3048 -0.604489 6.6624 0.133796 -82.1201 54.3811 9.741 26.7741 -11.915 -23.7831 20.6679 -4.7694 -5.71834 -21.6629 30.7804 6.54522 80.8462 69.9187 -13.531 -21.6409 -5.3553 14.2375 -12.2076 -8.00366 5.50794 0.550635 -4.74493 -2.6126 -0.823644 34.1091 1.7195 -0.429658 -19.8142 1.04583 10.5027 -23.7171 13.4115 0.148641 30.9598 -4.11267 -7.17695 0.988304 -3.69844 
-19.4321 97.1702 -473.585 2.77745 -1.26973 79.9747 -0.699758 6.48063 0.243828 -84.7942 52.387 11.5445 25.965 -9.91892 -20.2354 22.2165 -11.3842 -3.97506 -22.9214 30.347 3.17528 77.069 73.1392 -8.63139 -21.1231 -4.75756 13.0369 -13.0053 -11.5135 5.37783 0.635448 -4.22477 -1.32166 -1.16078 34.3657 2.40802 -0.154681 -20.9053 1.41113 11.5987 -23.1484 15.3055 0.360855 23.0879 -3.51876 -8.54608 2.73876 -2.86901 
-16.9269 97.0338 -473.512 2.54751 -1.64127 76.7831 -1.10457 6.41124 -0.0373951 -90.6349 47.726 17.4591 23.4344 -6.99659 -15.99 25.72 -22.8007 3.49256 -24.8902 32.8805 -8.04045 58.9416 77.1656 13.3618 -15.563 -0.959586 6.44773 -15.0263 -16.3615 6.69989 0.736645 -2.55498 1.07508 -0.914993 33.6022 2.52595 -0.0977914 -21.635 1.58813 13.1031 -20.2391 18.6114 0.59384 14.9201 -2.50664 -10.4112 3.45598 -1.82272 
-14.442 96.9883 -473.324 2.52728 -2.3739 73.2292 -1.59862 6.51724 -0.899674 -98.1794 50.9327 27.5028 19.2535 -3.73427 -10.7034 26.5003 -32.2402 14.1683 -27.1822 35.8942 -18.6281 17.5402 81.2296 57.1402 -12.9873 0.346844 3.07075 -9.48097 -15.0138 8.04338 0.859546 -0.981157 1.91889 -1.35456 33.4067 3.95264 -0.098931 -21.7182 2.36481 14.7637 -16.8913 21.1772 1.40914 10.0265 -2.01004 -9.72055 2.26339 -1.35049 
